<svg width="498" height="498" viewBox="0 0 498 498" fill="none" xmlns="http://www.w3.org/2000/svg">
<path class = "ring" d="M249 9C116.45 9 9 116.45 9 249C9 381.55 116.45 489 249 489C381.55 489 489 381.55 489 249C489 116.45 381.55 9 249 9ZM249 457C134.12 457 41 363.88 41 249C41 134.12 134.12 41 249 41C363.88 41 457 134.12 457 249C457 363.88 363.88 457 249 457Z" fill="#fFDB54"/>
<path d="M424.36 73.64C401.376 50.41 374.027 31.9515 343.886 19.3254C313.745 6.69941 281.405 0.154853 248.727 0.0679246C216.048 -0.0190036 183.674 6.35341 153.466 18.8189C123.258 31.2844 95.812 49.5971 72.7046 72.7046C49.5971 95.812 31.2844 123.258 18.8189 153.466C6.35341 183.674 -0.0190036 216.048 0.0679246 248.727C0.154853 281.405 6.69941 313.745 19.3254 343.886C31.9515 374.027 50.41 401.376 73.64 424.36C96.6242 447.59 123.973 466.049 154.114 478.675C184.255 491.301 216.595 497.845 249.273 497.932C281.952 498.019 314.326 491.647 344.534 479.181C374.742 466.716 402.188 448.403 425.295 425.295C448.403 402.188 466.716 374.742 479.181 344.534C491.647 314.326 498.019 281.952 497.932 249.273C497.845 216.595 491.301 184.255 478.675 154.114C466.049 123.973 447.59 96.6242 424.36 73.64V73.64ZM413.05 413.05C369.541 456.559 310.531 481.002 249 481.002C187.469 481.002 128.459 456.559 84.95 413.05C41.4412 369.541 16.9983 310.531 16.9983 249C16.9983 187.469 41.4412 128.459 84.95 84.95C128.459 41.4412 187.469 16.9983 249 16.9983C310.531 16.9983 369.541 41.4412 413.05 84.95C456.559 128.459 481.002 187.469 481.002 249C481.002 310.531 456.559 369.541 413.05 413.05V413.05Z" fill="#19192A"/>
<path d="M401.74 96.27C361.232 55.7608 306.291 33.0025 249.004 33.0016C191.716 33.0006 136.774 55.7572 96.265 96.265C55.7558 136.773 32.9975 191.714 32.9966 249.001C32.9956 306.289 55.7522 361.231 96.26 401.74C136.768 442.249 191.709 465.008 248.996 465.008C306.284 465.009 361.226 442.253 401.735 401.745C442.244 361.237 465.003 306.296 465.003 249.009C465.004 191.721 442.248 136.779 401.74 96.27V96.27ZM249 449C138.72 449 49 359.28 49 249C49 138.72 138.72 49 249 49C359.28 49 449 138.72 449 249C449 359.28 359.28 449 249 449Z" fill="#19192A"/>
<path d="M249 89C251.122 89 253.157 88.1571 254.657 86.6569C256.157 85.1566 257 83.1217 257 81V65C257 62.8783 256.157 60.8434 254.657 59.3431C253.157 57.8429 251.122 57 249 57C246.878 57 244.843 57.8429 243.343 59.3431C241.843 60.8434 241 62.8783 241 65V81C241 83.1217 241.843 85.1566 243.343 86.6569C244.843 88.1571 246.878 89 249 89Z" fill="#19192A"/>
<path d="M249 409C246.878 409 244.843 409.843 243.343 411.343C241.843 412.843 241 414.878 241 417V433C241 435.122 241.843 437.157 243.343 438.657C244.843 440.157 246.878 441 249 441C251.122 441 253.157 440.157 254.657 438.657C256.157 437.157 257 435.122 257 433V417C257 414.878 256.157 412.843 254.657 411.343C253.157 409.843 251.122 409 249 409Z" fill="#19192A"/>
<path d="M433 241H417C414.878 241 412.843 241.843 411.343 243.343C409.843 244.843 409 246.878 409 249C409 251.122 409.843 253.157 411.343 254.657C412.843 256.157 414.878 257 417 257H433C435.122 257 437.157 256.157 438.657 254.657C440.157 253.157 441 251.122 441 249C441 246.878 440.157 244.843 438.657 243.343C437.157 241.843 435.122 241 433 241Z" fill="#19192A"/>
<path d="M81 241H65C62.8783 241 60.8434 241.843 59.3431 243.343C57.8429 244.843 57 246.878 57 249C57 251.122 57.8429 253.157 59.3431 254.657C60.8434 256.157 62.8783 257 65 257H81C83.1217 257 85.1566 256.157 86.6569 254.657C88.1571 253.157 89 251.122 89 249C89 246.878 88.1571 244.843 86.6569 243.343C85.1566 241.843 83.1217 241 81 241Z" fill="#19192A"/>
<path d="M373.45 113.236L362.137 124.549C360.637 126.049 359.794 128.084 359.794 130.206C359.794 132.328 360.637 134.363 362.137 135.863C363.637 137.363 365.672 138.206 367.794 138.206C369.916 138.206 371.951 137.363 373.451 135.863L384.765 124.549C386.265 123.049 387.108 121.014 387.108 118.892C387.108 116.77 386.264 114.735 384.764 113.235C383.264 111.735 381.229 110.892 379.107 110.892C376.985 110.892 374.95 111.736 373.45 113.236V113.236Z" fill="#19192A"/>
<path d="M124.549 362.137L113.235 373.45C112.492 374.193 111.903 375.075 111.501 376.046C111.099 377.016 110.892 378.057 110.892 379.108C110.892 380.158 111.099 381.199 111.501 382.169C111.903 383.14 112.492 384.022 113.235 384.765C113.978 385.508 114.86 386.097 115.831 386.499C116.801 386.901 117.842 387.108 118.893 387.108C119.943 387.108 120.984 386.901 121.954 386.499C122.925 386.097 123.807 385.508 124.55 384.765L135.863 373.451C136.606 372.708 137.195 371.826 137.597 370.856C137.999 369.885 138.206 368.845 138.206 367.794C138.206 366.743 137.999 365.703 137.597 364.732C137.195 363.762 136.606 362.88 135.863 362.137C135.12 361.394 134.238 360.805 133.268 360.403C132.297 360.001 131.257 359.794 130.206 359.794C129.155 359.794 128.115 360.001 127.144 360.403C126.174 360.805 125.292 361.394 124.549 362.137V362.137Z" fill="#19192A"/>
<path d="M373.451 362.137C372.708 361.394 371.826 360.805 370.856 360.403C369.885 360.001 368.845 359.794 367.794 359.794C366.743 359.794 365.703 360.001 364.732 360.403C363.762 360.805 362.88 361.394 362.137 362.137C361.394 362.88 360.805 363.762 360.403 364.732C360.001 365.703 359.794 366.743 359.794 367.794C359.794 368.845 360.001 369.885 360.403 370.856C360.805 371.826 361.394 372.708 362.137 373.451L373.45 384.765C374.95 386.265 376.986 387.108 379.108 387.108C381.229 387.108 383.265 386.265 384.765 384.765C386.265 383.265 387.108 381.229 387.108 379.108C387.108 376.986 386.265 374.95 384.765 373.45L373.451 362.137Z" fill="#19192A"/>
<path d="M124.55 113.236C123.807 112.493 122.925 111.904 121.955 111.502C120.984 111.099 119.944 110.892 118.893 110.892C116.771 110.892 114.736 111.735 113.236 113.235C112.493 113.978 111.904 114.86 111.502 115.83C111.099 116.801 110.892 117.841 110.892 118.892C110.892 121.014 111.735 123.049 113.235 124.549L124.549 135.863C126.049 137.363 128.084 138.206 130.206 138.206C132.328 138.206 134.363 137.363 135.863 135.863C137.363 134.363 138.206 132.328 138.206 130.206C138.206 128.084 137.363 126.049 135.863 124.549L124.55 113.236Z" fill="#19192A"/>
</svg>
